<svg width="756.99" height="785.271" viewBox="0 0 200.287 207.77" xmlns:xlink="http://www.w3.org/1999/xlink" xmlns="http://www.w3.org/2000/svg"><defs><linearGradient id="prefix__a"><stop offset="0" stop-color="#434c5e"/><stop offset="1" stop-color="#5e81ac"/></linearGradient><linearGradient xlink:href="#prefix__a" id="prefix__c" x1="9.059" y1="236.771" x2="208.918" y2="29.781" gradientUnits="userSpaceOnUse"/><linearGradient xlink:href="#prefix__a" id="prefix__b" x1="9.059" y1="236.771" x2="208.918" y2="29.781" gradientUnits="userSpaceOnUse"/></defs><path style="mix-blend-mode:darken" d="M81.635 236.843c-5.541-.778-12.11-13.12-3.788-14.414 3.167-3.017 10.15-3.149 6.323-6.925-1.582-4.693 2.529-10.74 3.462-3.29 5.27-1.878 3.453 7.095 8.17 5.344 5.033-.754.05-10.02 5.99-8.588 1.477 4.065-4.282 9.048-.337 13.32 5.166 2.53 12.837 12.387 2.597 11.922-7.43.276-15.003 2.366-22.417 2.63zM12.743 127.128c-4.194-.603-5.242-3.106-3.133-7.04 2.943-17.079 10.859-32.808 20.904-46.709 10.19-13.339 23.529-24.593 38.871-31.668 10.272-5.25 21.558-8.336 32.843-10.716 19.031-2.972 39.246-2.13 57.04 5.743 16.719 6.748 31.806 17.479 43.702 30.98 2.1 3.457 6.57 6.6 5.777 11.002-3.16 1.707-5.128-3.04-7.827-4.257-7.397-6.414-15.458-11.988-24.855-15.155-28.127-11.923-60.842-7.963-88.3 4.025-25.48 11.556-45.141 32.597-61.623 54.69-3.313 4.27-7.241 9.821-13.399 9.105zm179.536-69.26c-.234-.337-.172.163 0 0z" fill="url(#prefix__b)" stroke="url(#prefix__c)" stroke-width=".085" transform="translate(-8.553 -29.412)"/></svg>
