<svg width="512" height="512" viewBox="0 0 135.467 135.467" version="1.1" id="prefix__prefix__prefix__prefix__svg2" xmlns:xlink="http://www.w3.org/1999/xlink" xmlns="http://www.w3.org/2000/svg"><defs id="prefix__prefix__prefix__prefix__defs2"><linearGradient id="prefix__prefix__prefix__prefix__prefix__a"><stop offset="0" stop-color="#434c5e" id="prefix__prefix__prefix__prefix__stop1"/><stop offset="1" stop-color="#5e81ac" id="prefix__prefix__prefix__prefix__stop2"/></linearGradient><linearGradient xlink:href="#prefix__prefix__prefix__prefix__prefix__a" id="prefix__prefix__prefix__prefix__prefix__c" x1="9.059" y1="236.771" x2="208.918" y2="29.781" gradientUnits="userSpaceOnUse" gradientTransform="matrix(.47698 0 0 .46054 15.874 6.424)"/><linearGradient xlink:href="#prefix__prefix__prefix__prefix__prefix__a" id="prefix__prefix__prefix__prefix__prefix__b" x1="9.059" y1="236.771" x2="208.918" y2="29.781" gradientUnits="userSpaceOnUse" gradientTransform="matrix(.47698 0 0 .46054 15.874 6.424)"/></defs><style id="style1"/><path style="mix-blend-mode:darken" d="M54.812 115.5c-2.642-.36-5.776-6.042-1.806-6.64 1.51-1.388 4.84-1.45 3.016-3.188-.755-2.16 1.206-4.946 1.65-1.515 2.514-.865 1.648 3.268 3.898 2.46 2.4-.346.023-4.613 2.857-3.954.704 1.872-2.043 4.167-.16 6.135 2.463 1.165 6.122 5.704 1.238 5.49-3.544.127-7.156 1.09-10.693 1.212zm-32.86-50.53c-2-.277-2.44-.09-1.494-3.242 1.404-7.865 5.18-15.11 9.97-21.51 4.86-6.144 11.225-11.327 18.54-14.585 4.9-2.42 10.284-3.84 15.667-4.936 9.077-1.37 18.72-.98 27.206 2.645 7.975 3.107 15.172 8.05 20.846 14.268 1 1.592 3.133 3.04 2.755 5.067-.333.969-1.704-.302-2.957-1.358-3.414-2.94-8.15-6.124-12.63-7.582-13.417-5.491-29.02-3.668-42.118 1.853-12.154 5.323-21.532 15.013-29.394 25.188-1.58 1.966-3.454 4.522-6.39 4.193zm85.635-31.897c-.11-.155-.082.076 0 0z" fill="url(#prefix__prefix__prefix__prefix__prefix__b)" stroke="url(#prefix__prefix__prefix__prefix__prefix__c)" stroke-width=".04" id="prefix__prefix__prefix__prefix__path2"/></svg>
