<svg width="512" height="512" viewBox="0 0 135.467 135.467" version="1.1" id="prefix__prefix__svg2" xmlns:xlink="http://www.w3.org/1999/xlink" xmlns="http://www.w3.org/2000/svg"><defs id="prefix__prefix__defs2"><linearGradient id="prefix__prefix__prefix__a"><stop offset="0" stop-color="#434c5e" id="prefix__prefix__stop1"/><stop offset="1" stop-color="#5e81ac" id="prefix__prefix__stop2"/></linearGradient><linearGradient xlink:href="#prefix__prefix__prefix__a" id="prefix__prefix__prefix__c" x1="9.059" y1="236.771" x2="208.918" y2="29.781" gradientUnits="userSpaceOnUse" gradientTransform="matrix(.62326 0 0 .60178 -.013 -12.382)"/><linearGradient xlink:href="#prefix__prefix__prefix__a" id="prefix__prefix__prefix__b" x1="9.059" y1="236.771" x2="208.918" y2="29.781" gradientUnits="userSpaceOnUse" gradientTransform="matrix(.62326 0 0 .60178 -.013 -12.382)"/></defs><style id="style1"/><path style="mix-blend-mode:darken" d="M50.867 130.145c-3.453-.468-7.548-7.895-2.36-8.674 1.973-1.815 6.325-1.895 3.94-4.167-.986-2.824 1.576-6.463 2.158-1.98 3.284-1.13 2.152 4.27 5.092 3.216 3.137-.454.03-6.03 3.733-5.168.92 2.446-2.669 5.445-.21 8.016 3.22 1.522 8 7.454 1.619 7.174-4.631.166-9.351 1.424-13.972 1.583zM7.929 64.121c-2.614-.363-3.267-1.87-1.952-4.237 1.834-10.277 6.768-19.743 13.028-28.108 6.351-8.027 14.665-14.8 24.227-19.057 6.402-3.16 13.436-5.017 20.47-6.45 11.861-1.788 24.46-1.28 35.55 3.457 10.421 4.06 19.824 10.519 27.239 18.643 1.308 2.08 4.094 3.972 3.6 6.621-1.97 1.027-3.196-1.83-4.878-2.562-4.61-3.86-9.635-7.214-15.491-9.12-17.53-7.175-37.92-4.792-55.034 2.422-15.881 6.955-28.135 19.617-38.408 32.912-2.065 2.57-4.513 5.91-8.35 5.479zm111.898-41.68c-.146-.202-.107.099 0 0z" fill="url(#prefix__prefix__prefix__b)" stroke="url(#prefix__prefix__prefix__c)" stroke-width=".052" id="prefix__prefix__path2"/></svg>
